<svg xmlns="http://www.w3.org/2000/svg" width="79" height="51" fill="none" viewBox="0 0 79 51">
  <g clip-path="url(#a)">
    <path fill="#F31260" d="M64.602 5.398c-2.422-2.421-8.008-4.648-13.32.625-3.516 3.477-4.766 7.891 0 12.657 4.765 4.726 9.179 3.476 12.695 0 5.312-5.313 3.046-10.86.625-13.282Z"/>
    <path fill="#FED0AC" d="m55.031 21.258-6.328-6.328s1.328 3.086-.937 5.39c0 0-1.914 1.914-3.946 3.672.235.469.157.508.977 1.367.703.703.742.625 1.133.86 1.758-2.07 3.71-4.024 3.71-4.024 2.305-2.265 5.391-.937 5.391-.937Z"/>
    <path fill="#D3976E" d="M45.969 26.14a75.745 75.745 0 0 1 3.32-3.554l3.398-3.672-1.64-1.64-3.672 3.398c-.664.625-2.11 2.031-3.594 3.32.235.469.157.508.977 1.367.703.703.742.625 1.133.86l.078-.078Z" opacity=".5"/>
    <path fill="#D3976E" d="M45.305 25.867c.234.195.351.235.586.352.039-.04.039-.04.078-.04a75.694 75.694 0 0 1 3.32-3.554l3.398-3.672-.937.547-6.445 6.367Z"/>
    <path fill="#3E4347" d="m55.031 21.258-2.343-2.344-3.165 3.398c.625-.625 2.54-2.07 5.508-1.054Zm-6.328-6.328 2.344 2.343-3.399 3.165c.625-.665 2.07-2.54 1.055-5.508Z"/>
    <path fill="#fff" d="M64.133 26.219a3.086 3.086 0 1 0 0-6.172 3.086 3.086 0 0 0 0 6.172Z"/>
    <path fill="#fff" d="M66.281 21.96c-.156.313-.781.313-1.367 0-.586-.312-.977-.82-.82-1.093.156-.312.78-.312 1.367 0 .625.313.976.781.82 1.094Z"/>
  </g>
  <path fill="#F31260" d="M16.184 8.504a5.997 5.997 0 0 1-.756 2.94c-.485.915-1.26 1.652-2.324 2.212-1.045.56-2.37.84-3.976.84H5.852V22h-3.92V2.456h7.196c1.512 0 2.8.261 3.864.784s1.857 1.241 2.38 2.156c.541.915.812 1.95.812 3.108ZM8.96 11.332c1.083 0 1.885-.243 2.408-.728.523-.504.784-1.204.784-2.1 0-1.904-1.064-2.856-3.192-2.856H5.852v5.684H8.96ZM20.955 4.64c-.69 0-1.27-.215-1.736-.644-.448-.448-.672-.999-.672-1.652 0-.653.224-1.195.672-1.624.467-.448 1.046-.672 1.736-.672s1.26.224 1.708.672c.467.43.7.97.7 1.624a2.2 2.2 0 0 1-.7 1.652c-.448.43-1.017.644-1.708.644Zm1.932 1.848V22h-3.92V6.488h3.92Zm12.47-.224c1.847 0 3.34.588 4.48 1.764 1.138 1.157 1.707 2.781 1.707 4.872V22h-3.92v-8.568c0-1.232-.308-2.175-.924-2.828-.616-.672-1.456-1.008-2.52-1.008-1.083 0-1.941.336-2.576 1.008-.616.653-.924 1.596-.924 2.828V22h-3.92V6.488h3.92V8.42a5.315 5.315 0 0 1 1.988-1.568 6.16 6.16 0 0 1 2.688-.588Zm-19.173 23.24a5.997 5.997 0 0 1-.756 2.94c-.485.915-1.26 1.652-2.324 2.212-1.045.56-2.37.84-3.976.84H5.852V43h-3.92V23.456h7.196c1.512 0 2.8.261 3.864.784s1.857 1.241 2.38 2.156c.541.915.812 1.95.812 3.108ZM8.96 32.332c1.083 0 1.885-.243 2.408-.728.523-.504.784-1.204.784-2.1 0-1.904-1.064-2.856-3.192-2.856H5.852v5.684H8.96Zm16.895 10.92c-1.493 0-2.837-.327-4.032-.98a7.351 7.351 0 0 1-2.828-2.828c-.672-1.213-1.008-2.613-1.008-4.2 0-1.587.346-2.987 1.036-4.2a7.294 7.294 0 0 1 2.884-2.8c1.213-.672 2.567-1.008 4.06-1.008 1.494 0 2.847.336 4.06 1.008a7.107 7.107 0 0 1 2.856 2.8c.71 1.213 1.064 2.613 1.064 4.2 0 1.587-.364 2.987-1.092 4.2a7.44 7.44 0 0 1-2.912 2.828c-1.213.653-2.576.98-4.088.98Zm0-3.416c.71 0 1.372-.168 1.988-.504.635-.355 1.139-.877 1.512-1.568.373-.69.56-1.53.56-2.52 0-1.475-.392-2.604-1.176-3.388-.765-.803-1.708-1.204-2.828-1.204-1.12 0-2.063.401-2.828 1.204-.746.784-1.12 1.913-1.12 3.388 0 1.475.364 2.613 1.092 3.416.747.784 1.68 1.176 2.8 1.176ZM45.42 27.264c1.848 0 3.341.588 4.48 1.764 1.138 1.157 1.708 2.781 1.708 4.872V43h-3.92v-8.568c0-1.232-.308-2.175-.924-2.828-.616-.672-1.456-1.008-2.52-1.008-1.083 0-1.942.336-2.576 1.008-.616.653-.924 1.596-.924 2.828V43h-3.92V27.488h3.92v1.932a5.315 5.315 0 0 1 1.988-1.568 6.16 6.16 0 0 1 2.688-.588Zm15.991-.028c1.158 0 2.175.233 3.052.7.878.448 1.568 1.036 2.072 1.764v-2.212h3.948v15.624c0 1.437-.289 2.716-.868 3.836-.578 1.139-1.446 2.035-2.604 2.688-1.157.672-2.557 1.008-4.2 1.008-2.202 0-4.013-.513-5.432-1.54-1.4-1.027-2.193-2.427-2.38-4.2h3.892c.206.71.644 1.27 1.316 1.68.691.43 1.522.644 2.492.644 1.139 0 2.063-.345 2.772-1.036.71-.672 1.064-1.699 1.064-3.08v-2.408c-.504.728-1.204 1.335-2.1 1.82-.877.485-1.885.728-3.024.728a6.663 6.663 0 0 1-3.584-1.008c-1.082-.672-1.941-1.615-2.576-2.828-.616-1.232-.924-2.641-.924-4.228 0-1.568.308-2.959.924-4.172.635-1.213 1.484-2.147 2.548-2.8 1.083-.653 2.287-.98 3.612-.98Zm5.124 8.008c0-.952-.186-1.764-.56-2.436-.373-.69-.877-1.213-1.512-1.568a3.964 3.964 0 0 0-2.044-.56c-.728 0-1.4.177-2.016.532-.616.355-1.12.877-1.512 1.568-.373.672-.56 1.475-.56 2.408 0 .933.187 1.755.56 2.464.392.69.896 1.223 1.512 1.596a3.92 3.92 0 0 0 2.016.56c.728 0 1.41-.177 2.044-.532a4.073 4.073 0 0 0 1.512-1.568c.374-.69.56-1.512.56-2.464Z"/>
  <defs>
    <clipPath id="a">
      <path fill="#fff" d="M43 2h25v25H43z"/>
    </clipPath>
  </defs>
</svg>
